<mxfile host="app.diagrams.net" agent="Mozilla/5.0 (Windows NT 10.0; Win64; x64) AppleWebKit/537.36 (KHTML, like Gecko) Chrome/128.0.0.0 Safari/537.36 OPR/114.0.0.0" version="26.0.4">
  <diagram name="1 oldal" id="7hofR7cKz64PAnhXhXmz">
    <mxGraphModel dx="1393" dy="805" grid="1" gridSize="10" guides="1" tooltips="1" connect="1" arrows="1" fold="1" page="1" pageScale="1" pageWidth="827" pageHeight="1169" math="0" shadow="0">
      <root>
        <mxCell id="0" />
        <mxCell id="1" parent="0" />
        <mxCell id="QhJiTuoSOAiHCR8PdSNW-1" value="StudentEntity" style="swimlane;fontStyle=0;childLayout=stackLayout;horizontal=1;startSize=30;horizontalStack=0;resizeParent=1;resizeParentMax=0;resizeLast=0;collapsible=1;marginBottom=0;whiteSpace=wrap;html=1;" parent="1" vertex="1">
          <mxGeometry x="120" y="100" width="140" height="210" as="geometry" />
        </mxCell>
        <mxCell id="QhJiTuoSOAiHCR8PdSNW-2" value="EduId" style="text;strokeColor=none;fillColor=none;align=left;verticalAlign=middle;spacingLeft=4;spacingRight=4;overflow=hidden;points=[[0,0.5],[1,0.5]];portConstraint=eastwest;rotatable=0;whiteSpace=wrap;html=1;" parent="QhJiTuoSOAiHCR8PdSNW-1" vertex="1">
          <mxGeometry y="30" width="140" height="30" as="geometry" />
        </mxCell>
        <mxCell id="QhJiTuoSOAiHCR8PdSNW-3" value="Name" style="text;strokeColor=none;fillColor=none;align=left;verticalAlign=middle;spacingLeft=4;spacingRight=4;overflow=hidden;points=[[0,0.5],[1,0.5]];portConstraint=eastwest;rotatable=0;whiteSpace=wrap;html=1;" parent="QhJiTuoSOAiHCR8PdSNW-1" vertex="1">
          <mxGeometry y="60" width="140" height="30" as="geometry" />
        </mxCell>
        <mxCell id="QhJiTuoSOAiHCR8PdSNW-4" value="DateOfBirth" style="text;strokeColor=none;fillColor=none;align=left;verticalAlign=middle;spacingLeft=4;spacingRight=4;overflow=hidden;points=[[0,0.5],[1,0.5]];portConstraint=eastwest;rotatable=0;whiteSpace=wrap;html=1;" parent="QhJiTuoSOAiHCR8PdSNW-1" vertex="1">
          <mxGeometry y="90" width="140" height="30" as="geometry" />
        </mxCell>
        <mxCell id="SAx37Kzd4dIz1yl8l8S3-1" value="Address" style="text;html=1;align=left;verticalAlign=middle;whiteSpace=wrap;rounded=0;" parent="QhJiTuoSOAiHCR8PdSNW-1" vertex="1">
          <mxGeometry y="120" width="140" height="30" as="geometry" />
        </mxCell>
        <mxCell id="SAx37Kzd4dIz1yl8l8S3-2" value="Grades" style="text;html=1;align=left;verticalAlign=middle;whiteSpace=wrap;rounded=0;" parent="QhJiTuoSOAiHCR8PdSNW-1" vertex="1">
          <mxGeometry y="150" width="140" height="30" as="geometry" />
        </mxCell>
        <mxCell id="SAx37Kzd4dIz1yl8l8S3-3" value="Subjects" style="text;html=1;align=left;verticalAlign=middle;whiteSpace=wrap;rounded=0;" parent="QhJiTuoSOAiHCR8PdSNW-1" vertex="1">
          <mxGeometry y="180" width="140" height="30" as="geometry" />
        </mxCell>
        <mxCell id="zyBbYh9aLGvuMZSmmevP-1" style="edgeStyle=none;curved=1;rounded=0;orthogonalLoop=1;jettySize=auto;html=1;entryX=0.5;entryY=1;entryDx=0;entryDy=0;fontSize=12;startSize=8;endSize=8;endArrow=none;endFill=0;" edge="1" parent="1" source="SAx37Kzd4dIz1yl8l8S3-4" target="SAx37Kzd4dIz1yl8l8S3-3">
          <mxGeometry relative="1" as="geometry" />
        </mxCell>
        <mxCell id="zyBbYh9aLGvuMZSmmevP-4" value="1" style="edgeLabel;html=1;align=center;verticalAlign=middle;resizable=0;points=[];fontSize=12;" vertex="1" connectable="0" parent="zyBbYh9aLGvuMZSmmevP-1">
          <mxGeometry y="-2" relative="1" as="geometry">
            <mxPoint x="-2" y="45" as="offset" />
          </mxGeometry>
        </mxCell>
        <mxCell id="zyBbYh9aLGvuMZSmmevP-5" value="N" style="edgeLabel;html=1;align=center;verticalAlign=middle;resizable=0;points=[];fontSize=12;" vertex="1" connectable="0" parent="zyBbYh9aLGvuMZSmmevP-1">
          <mxGeometry x="-0.05" y="-4" relative="1" as="geometry">
            <mxPoint x="-4" y="-48" as="offset" />
          </mxGeometry>
        </mxCell>
        <mxCell id="SAx37Kzd4dIz1yl8l8S3-4" value="AddressEntity" style="swimlane;fontStyle=0;childLayout=stackLayout;horizontal=1;startSize=30;horizontalStack=0;resizeParent=1;resizeParentMax=0;resizeLast=0;collapsible=1;marginBottom=0;whiteSpace=wrap;html=1;" parent="1" vertex="1">
          <mxGeometry x="120" y="420" width="140" height="210" as="geometry" />
        </mxCell>
        <mxCell id="SAx37Kzd4dIz1yl8l8S3-5" value="Id" style="text;strokeColor=none;fillColor=none;align=left;verticalAlign=middle;spacingLeft=4;spacingRight=4;overflow=hidden;points=[[0,0.5],[1,0.5]];portConstraint=eastwest;rotatable=0;whiteSpace=wrap;html=1;" parent="SAx37Kzd4dIz1yl8l8S3-4" vertex="1">
          <mxGeometry y="30" width="140" height="30" as="geometry" />
        </mxCell>
        <mxCell id="SAx37Kzd4dIz1yl8l8S3-6" value="Street" style="text;strokeColor=none;fillColor=none;align=left;verticalAlign=middle;spacingLeft=4;spacingRight=4;overflow=hidden;points=[[0,0.5],[1,0.5]];portConstraint=eastwest;rotatable=0;whiteSpace=wrap;html=1;" parent="SAx37Kzd4dIz1yl8l8S3-4" vertex="1">
          <mxGeometry y="60" width="140" height="30" as="geometry" />
        </mxCell>
        <mxCell id="SAx37Kzd4dIz1yl8l8S3-7" value="City" style="text;strokeColor=none;fillColor=none;align=left;verticalAlign=middle;spacingLeft=4;spacingRight=4;overflow=hidden;points=[[0,0.5],[1,0.5]];portConstraint=eastwest;rotatable=0;whiteSpace=wrap;html=1;" parent="SAx37Kzd4dIz1yl8l8S3-4" vertex="1">
          <mxGeometry y="90" width="140" height="30" as="geometry" />
        </mxCell>
        <mxCell id="SAx37Kzd4dIz1yl8l8S3-8" value="HouseNumber" style="text;html=1;align=left;verticalAlign=middle;whiteSpace=wrap;rounded=0;" parent="SAx37Kzd4dIz1yl8l8S3-4" vertex="1">
          <mxGeometry y="120" width="140" height="30" as="geometry" />
        </mxCell>
        <mxCell id="SAx37Kzd4dIz1yl8l8S3-9" value="Country" style="text;html=1;align=left;verticalAlign=middle;whiteSpace=wrap;rounded=0;" parent="SAx37Kzd4dIz1yl8l8S3-4" vertex="1">
          <mxGeometry y="150" width="140" height="30" as="geometry" />
        </mxCell>
        <mxCell id="SAx37Kzd4dIz1yl8l8S3-10" value="Students" style="text;html=1;align=left;verticalAlign=middle;whiteSpace=wrap;rounded=0;" parent="SAx37Kzd4dIz1yl8l8S3-4" vertex="1">
          <mxGeometry y="180" width="140" height="30" as="geometry" />
        </mxCell>
        <mxCell id="zyBbYh9aLGvuMZSmmevP-8" style="edgeStyle=none;curved=1;rounded=0;orthogonalLoop=1;jettySize=auto;html=1;entryX=0.5;entryY=1;entryDx=0;entryDy=0;fontSize=12;startSize=8;endSize=8;endArrow=none;endFill=0;" edge="1" parent="1" source="SAx37Kzd4dIz1yl8l8S3-11" target="SAx37Kzd4dIz1yl8l8S3-21">
          <mxGeometry relative="1" as="geometry" />
        </mxCell>
        <mxCell id="zyBbYh9aLGvuMZSmmevP-11" value="N" style="edgeLabel;html=1;align=center;verticalAlign=middle;resizable=0;points=[];fontSize=12;" vertex="1" connectable="0" parent="zyBbYh9aLGvuMZSmmevP-8">
          <mxGeometry x="-0.8125" y="1" relative="1" as="geometry">
            <mxPoint as="offset" />
          </mxGeometry>
        </mxCell>
        <mxCell id="zyBbYh9aLGvuMZSmmevP-12" value="N" style="edgeLabel;html=1;align=center;verticalAlign=middle;resizable=0;points=[];fontSize=12;" vertex="1" connectable="0" parent="zyBbYh9aLGvuMZSmmevP-8">
          <mxGeometry x="0.8375" y="1" relative="1" as="geometry">
            <mxPoint as="offset" />
          </mxGeometry>
        </mxCell>
        <mxCell id="zyBbYh9aLGvuMZSmmevP-13" style="edgeStyle=orthogonalEdgeStyle;rounded=0;orthogonalLoop=1;jettySize=auto;html=1;entryX=1;entryY=0.5;entryDx=0;entryDy=0;fontSize=12;startSize=8;endSize=8;endArrow=none;endFill=0;" edge="1" parent="1" source="SAx37Kzd4dIz1yl8l8S3-11" target="SAx37Kzd4dIz1yl8l8S3-2">
          <mxGeometry relative="1" as="geometry">
            <Array as="points">
              <mxPoint x="395" y="450" />
              <mxPoint x="395" y="265" />
            </Array>
          </mxGeometry>
        </mxCell>
        <mxCell id="zyBbYh9aLGvuMZSmmevP-14" value="N" style="edgeLabel;html=1;align=center;verticalAlign=middle;resizable=0;points=[];fontSize=12;" vertex="1" connectable="0" parent="zyBbYh9aLGvuMZSmmevP-13">
          <mxGeometry x="-0.9473" relative="1" as="geometry">
            <mxPoint as="offset" />
          </mxGeometry>
        </mxCell>
        <mxCell id="zyBbYh9aLGvuMZSmmevP-15" value="N" style="edgeLabel;html=1;align=center;verticalAlign=middle;resizable=0;points=[];fontSize=12;" vertex="1" connectable="0" parent="zyBbYh9aLGvuMZSmmevP-13">
          <mxGeometry x="0.9429" y="-1" relative="1" as="geometry">
            <mxPoint as="offset" />
          </mxGeometry>
        </mxCell>
        <mxCell id="SAx37Kzd4dIz1yl8l8S3-11" value="GradeEntity" style="swimlane;fontStyle=0;childLayout=stackLayout;horizontal=1;startSize=30;horizontalStack=0;resizeParent=1;resizeParentMax=0;resizeLast=0;collapsible=1;marginBottom=0;whiteSpace=wrap;html=1;" parent="1" vertex="1">
          <mxGeometry x="530" y="440" width="140" height="180" as="geometry" />
        </mxCell>
        <mxCell id="SAx37Kzd4dIz1yl8l8S3-12" value="Id" style="text;strokeColor=none;fillColor=none;align=left;verticalAlign=middle;spacingLeft=4;spacingRight=4;overflow=hidden;points=[[0,0.5],[1,0.5]];portConstraint=eastwest;rotatable=0;whiteSpace=wrap;html=1;" parent="SAx37Kzd4dIz1yl8l8S3-11" vertex="1">
          <mxGeometry y="30" width="140" height="30" as="geometry" />
        </mxCell>
        <mxCell id="SAx37Kzd4dIz1yl8l8S3-13" value="SubjectId" style="text;strokeColor=none;fillColor=none;align=left;verticalAlign=middle;spacingLeft=4;spacingRight=4;overflow=hidden;points=[[0,0.5],[1,0.5]];portConstraint=eastwest;rotatable=0;whiteSpace=wrap;html=1;" parent="SAx37Kzd4dIz1yl8l8S3-11" vertex="1">
          <mxGeometry y="60" width="140" height="30" as="geometry" />
        </mxCell>
        <mxCell id="SAx37Kzd4dIz1yl8l8S3-14" value="GradeValue" style="text;strokeColor=none;fillColor=none;align=left;verticalAlign=middle;spacingLeft=4;spacingRight=4;overflow=hidden;points=[[0,0.5],[1,0.5]];portConstraint=eastwest;rotatable=0;whiteSpace=wrap;html=1;" parent="SAx37Kzd4dIz1yl8l8S3-11" vertex="1">
          <mxGeometry y="90" width="140" height="30" as="geometry" />
        </mxCell>
        <mxCell id="SAx37Kzd4dIz1yl8l8S3-15" value="Subject" style="text;html=1;align=left;verticalAlign=middle;whiteSpace=wrap;rounded=0;" parent="SAx37Kzd4dIz1yl8l8S3-11" vertex="1">
          <mxGeometry y="120" width="140" height="30" as="geometry" />
        </mxCell>
        <mxCell id="SAx37Kzd4dIz1yl8l8S3-16" value="Student" style="text;html=1;align=left;verticalAlign=middle;whiteSpace=wrap;rounded=0;" parent="SAx37Kzd4dIz1yl8l8S3-11" vertex="1">
          <mxGeometry y="150" width="140" height="30" as="geometry" />
        </mxCell>
        <mxCell id="SAx37Kzd4dIz1yl8l8S3-17" value="SubjectEntity" style="swimlane;fontStyle=0;childLayout=stackLayout;horizontal=1;startSize=30;horizontalStack=0;resizeParent=1;resizeParentMax=0;resizeLast=0;collapsible=1;marginBottom=0;whiteSpace=wrap;html=1;" parent="1" vertex="1">
          <mxGeometry x="530" y="130" width="140" height="150" as="geometry" />
        </mxCell>
        <mxCell id="SAx37Kzd4dIz1yl8l8S3-18" value="Id" style="text;strokeColor=none;fillColor=none;align=left;verticalAlign=middle;spacingLeft=4;spacingRight=4;overflow=hidden;points=[[0,0.5],[1,0.5]];portConstraint=eastwest;rotatable=0;whiteSpace=wrap;html=1;" parent="SAx37Kzd4dIz1yl8l8S3-17" vertex="1">
          <mxGeometry y="30" width="140" height="30" as="geometry" />
        </mxCell>
        <mxCell id="SAx37Kzd4dIz1yl8l8S3-19" value="SubjectName" style="text;strokeColor=none;fillColor=none;align=left;verticalAlign=middle;spacingLeft=4;spacingRight=4;overflow=hidden;points=[[0,0.5],[1,0.5]];portConstraint=eastwest;rotatable=0;whiteSpace=wrap;html=1;" parent="SAx37Kzd4dIz1yl8l8S3-17" vertex="1">
          <mxGeometry y="60" width="140" height="30" as="geometry" />
        </mxCell>
        <mxCell id="SAx37Kzd4dIz1yl8l8S3-20" value="Students" style="text;strokeColor=none;fillColor=none;align=left;verticalAlign=middle;spacingLeft=4;spacingRight=4;overflow=hidden;points=[[0,0.5],[1,0.5]];portConstraint=eastwest;rotatable=0;whiteSpace=wrap;html=1;" parent="SAx37Kzd4dIz1yl8l8S3-17" vertex="1">
          <mxGeometry y="90" width="140" height="30" as="geometry" />
        </mxCell>
        <mxCell id="SAx37Kzd4dIz1yl8l8S3-21" value="Grades" style="text;html=1;align=left;verticalAlign=middle;whiteSpace=wrap;rounded=0;" parent="SAx37Kzd4dIz1yl8l8S3-17" vertex="1">
          <mxGeometry y="120" width="140" height="30" as="geometry" />
        </mxCell>
        <mxCell id="SAx37Kzd4dIz1yl8l8S3-22" style="edgeStyle=orthogonalEdgeStyle;rounded=0;orthogonalLoop=1;jettySize=auto;html=1;entryX=0;entryY=0.5;entryDx=0;entryDy=0;endArrow=none;endFill=0;" parent="1" source="QhJiTuoSOAiHCR8PdSNW-4" target="SAx37Kzd4dIz1yl8l8S3-19" edge="1">
          <mxGeometry relative="1" as="geometry" />
        </mxCell>
        <mxCell id="zyBbYh9aLGvuMZSmmevP-6" value="N" style="edgeLabel;html=1;align=center;verticalAlign=middle;resizable=0;points=[];fontSize=12;" vertex="1" connectable="0" parent="SAx37Kzd4dIz1yl8l8S3-22">
          <mxGeometry x="0.1926" y="2" relative="1" as="geometry">
            <mxPoint x="99" y="2" as="offset" />
          </mxGeometry>
        </mxCell>
        <mxCell id="zyBbYh9aLGvuMZSmmevP-7" value="N" style="edgeLabel;html=1;align=center;verticalAlign=middle;resizable=0;points=[];fontSize=12;" vertex="1" connectable="0" parent="SAx37Kzd4dIz1yl8l8S3-22">
          <mxGeometry x="-0.1481" relative="1" as="geometry">
            <mxPoint x="-105" as="offset" />
          </mxGeometry>
        </mxCell>
      </root>
    </mxGraphModel>
  </diagram>
</mxfile>
